<svg id="Layer_1" data-name="Layer 1" xmlns="http://www.w3.org/2000/svg" viewBox="0 0 1400 980"><defs><style>.cls-1{fill:#231f20;}</style></defs><title>Free Man Pushing Silhouette Vector</title><path class="cls-1" d="M1311,129.66l-.74-.65q.07.84.16,1.67C1310.61,130.34,1310.8,130,1311,129.66Z"/><path class="cls-1" d="M1351.84,184.24c-.84-.66.46-7.24.3-10.72s-.21-4.41-1.29-4.36.17-7.69-1.51-9-6.3,4-6.14,7.28,1.6,8-1.37,10.77-4.3,11.84-4.24,13-8.17,4.35-8.31,1.56,1.67-10.32,1.54-12.88l-.44-9.06c-.16-3.25-1.82-8.35-2.73-9.06s-.5-3.41-2.25-1.75-1.93,5-2.44,8.38.44,3.47-1.2,8.79-1.06,10.35-2.54,11.76-15.58,4.82-18.28,5c-1.73.08-10.45,1.83-17,2.69l-2.76-1.72a5.13,5.13,0,0,0-2-1.3c-.7-.45-1.41-.9-2.1-1.37-1.68-1.13-3.3-2.34-4.92-3.55a17.47,17.47,0,0,0-.63-3.75,8.63,8.63,0,0,0-1.25-2.53,15.31,15.31,0,0,0-5.49-4.35,18,18,0,0,0-1.8-.82c-1.1-.44-2.21-.83-3.27-1.33l-.13-.06c-.46-1.56-1.15-3.12-1.55-4.79a12.83,12.83,0,0,1-.29-4,22.78,22.78,0,0,1,1.4-6l.06-.07c2.35-2.36,5.16-3.88,8.54-2.33,1.23.57,2.18,1.73,3.4,2.33,2.61,1.29,4.89.58,7.71.83a1.5,1.5,0,0,0,1.76-1.11c.56-4.16,1-8.69,4.42-11.56,1.47-1.25,3.82-1.93,5-3.48,1-1.35,1.13-3.57,1.48-5.17,1.06-4.88,4-6.84,7.49-10,5.85-5.21,6.42-16.4,2.35-23.51a14.72,14.72,0,0,0-2.07-2.8,12.26,12.26,0,0,0-1.5-1.37,51.55,51.55,0,0,0-17.12-8.48,37.91,37.91,0,0,0-5.13-.85c-1.87-.2-3.74-.35-5.6-.59-2.56-.34-5.12-1-7.7-1.26-.41,0-.81-.07-1.22-.09a12.13,12.13,0,0,0-3.6.39c-4,1-7.55,3.93-10.25,7.57q-.34.45-.66.92a24,24,0,0,0-4.4,12.92c0,1.92.25,3.8.42,5.69,0,.22,0,.44.06.65a26.45,26.45,0,0,1,.07,3.9,42.53,42.53,0,0,1-2.12,10.45q-.52,1.57-1.16,3a27.8,27.8,0,0,1-5.54,8.53,46.88,46.88,0,0,1-7.14,3.38c-7.7,2.93-16,5.42-25.84,19.16s-12.79,20.87-17.38,32.26a65.54,65.54,0,0,0-3.29,11,39.78,39.78,0,0,1-5.05,6.14c-2.91,2.76-6.57,5-7,9.31a22.6,22.6,0,0,0,1.15,8.33c-6.86,3.06-15.28,20.78-14.74,31.81a31.3,31.3,0,0,1-1.39,9.82c-2.53,6.59-7.27,12.38-10.93,18.3A2.08,2.08,0,0,0,1143,298c1,.41,1.91.86,2.85,1.32-11,10.72-8.42,10.29-12.95,14.59-3.55,3.37-21.32,14.75-27.55,26.77-2.72,5.25-22.63,32.28-28,32.54-3.24.16-7,4.61-7,5.77s-3.79,7.25-3.63,11.37c-1.54,5-1,10,5.39,10.88,4.62.61,10.83,1.78,15.42.66,2.87-.7,5.55-2.83,8-5.07l1.89-.18c3.93,2.32,7.56,5.24,12.34,5.61,4,.3,8.16-.76,12-1.65s9.07-1.88,12.19-4.68c1.39-1.25,2.17-3.42,1.36-4.88a5.31,5.31,0,0,0-.87-5.68c-4-5.16-25.8-8.07-25.8-8.07s.31-4.67,5.49-9.58,30.39-31.88,36.46-34.5c14.7-6.33,23-9.64,26.27-16.35a42.59,42.59,0,0,0,5.05,1.54,2.19,2.19,0,0,0,2.65-2.22c-.29-7.55,6.67-11.63,10.73-17,.25-.33.49-.68.74-1,2.82,6.77,10.8,12.64,17.37,16.8l.38.24c1.89,1.19,3.66,2.23,5.13,3.11,4.48,2.67,10.94,8.64,16.4,8.09,2.64-.27,3.92-2.62,5.21-4.67.31-.5.65-1,1-1.46a8.72,8.72,0,0,0,1.77,2.32c1.22,1,3.63,3.28,1.43,5.36s-5,10.36-11.07,19-5.91,19.53-7.93,26.29-2.71,12.93-4.52,14.65-7.42,10.68-7.16,16a13.9,13.9,0,0,0,.28,2.15c-.33,4.27,1.07,8,5.93,9.34s13.07.54,17.09-2.49a8.13,8.13,0,0,0,2.1-2.5c1.71-.39,3.32-.75,4.74-1a11.4,11.4,0,0,0,6.84,2.54c3.24.18,6.42-.58,9.61-1,2.73-.37,5.47-.3,8.2-.55,4-.37,9.54-1.75,9.56-6.8a6,6,0,0,0-.55-2.46c-1-4.23-5-8.44-12.77-9.86-10.09-1.84-17.1-4.3-17.25-7.43s3.71-11.7,6-13.91,21.42-28.57,26-32.91c4.22-4,8.1-15.21,4.61-20.39s-9.4-12.78-12.63-15.3a6.41,6.41,0,0,1-2.2-6.41l-10.25-8c-6.88-5.37-12.61-14.76-18.09-19s-3.76-6.39-5.65-7.87-1.83-7.21-.54-8.43,4.65-8.37,4.56-10.23,1.37-22.06,15-27.18c0,0,18.95,11.66,29.47,11.15s30.86-10.33,40.47-13.12,15.38-6.09,18.08-6.22,8.59-1.34,8.45-4.13-2.33-9.2.77-12.14S1352.68,184.9,1351.84,184.24Zm-66.9-68,.06-.44.26,0A2.58,2.58,0,0,0,1284.94,116.23Zm.8-14.77.55.22a2.51,2.51,0,0,0-.42.15c-1-.46-1.92-.86-2.89-1.22l-.09,0-.48-.25C1283.51,100.64,1284.62,101,1285.74,101.46ZM1147.22,294.6l.95,1.11c-.42-.19-.83-.4-1.26-.58Zm86.64,27.56a7.14,7.14,0,0,1-3.34-1.2c1.61.42,3,.78,4.2,1.06A2.85,2.85,0,0,1,1233.86,322.16Z"/><path class="cls-1" d="M1343.87,401.67c-2.46-.15-6.07-.44-10.66-.68s-10.16-.61-16.56-.89-13.61-.66-21.48-1c-15.74-.6-34.1-1.13-53.77-1.48l-15-.23q-7.59-.12-15.35-.17c-10.33-.11-20.82-.12-31.31-.14s-21,0-31.31.15l-15.35.17-15,.24c-19.67.35-38,.88-53.77,1.48-7.87.29-15.08.64-21.48.95s-12,.62-16.56.88-8.2.53-10.66.68l-3.77.28,3.77.28c2.46.15,6.07.43,10.66.68s10.16.6,16.56.88,13.61.65,21.48.95c15.74.6,34.1,1.13,53.77,1.48l15,.24,15.35.17,2.5,0-9.52.13-12.3.24c-16.16.35-31.24.88-44.17,1.48-6.46.3-12.39.63-17.64.94s-9.83.63-13.6.89-6.73.53-8.75.68l-3.1.28,3.1.28c2,.15,5,.43,8.75.68s8.35.6,13.6.89,11.18.64,17.64.94c12.93.6,28,1.13,44.17,1.48l12.3.24,12.61.17,2.85,0-7.12.13c-3.25.07-6.47.14-9.63.24-12.64.35-24.45.88-34.56,1.48-5.06.3-9.69.62-13.8.93s-7.69.63-10.64.89-5.27.53-6.85.68l-2.42.28,2.42.28c1.58.15,3.9.43,6.85.68s6.53.6,10.64.89,8.75.63,13.8.93c10.12.6,21.92,1.13,34.56,1.48,3.16.09,6.37.16,9.63.24s6.55.13,9.87.17l3.36,0c-1.64,0-3.28.07-4.89.12-2.35.07-4.67.13-7,.24-9.13.35-17.65.88-25,1.48-3.65.3-7,.62-10,.93s-5.55.64-7.68.9-3.8.53-4.95.68l-1.75.28,1.75.28c1.14.15,2.82.43,4.95.68s4.72.6,7.68.9,6.32.62,10,.93c7.3.6,15.83,1.13,25,1.48,2.28.1,4.6.17,7,.24s4.73.14,7.12.17c4.79.11,9.66.12,14.53.15s9.74,0,14.53-.14q3.6,0,7.12-.17c2.35-.07,4.67-.13,7-.23,9.13-.35,17.65-.88,25-1.48,3.65-.31,7-.62,10-.93s5.55-.64,7.68-.9,3.8-.53,4.95-.68l1.75-.28-1.75-.28c-1.14-.15-2.82-.44-4.95-.68s-4.72-.6-7.68-.9-6.32-.63-10-.93c-7.3-.6-15.83-1.13-25-1.48-2.28-.11-4.6-.16-7-.23-1.47,0-3-.07-4.46-.11l2.93,0q5,0,9.87-.17c3.25-.07,6.47-.14,9.63-.23,12.64-.35,24.45-.88,34.56-1.48,5.06-.3,9.69-.63,13.8-.94s7.69-.64,10.64-.9,5.27-.53,6.85-.68l2.42-.28-2.42-.28c-1.58-.15-3.9-.44-6.85-.68s-6.53-.6-10.64-.9-8.75-.64-13.8-.94c-10.12-.6-21.92-1.13-34.56-1.48-3.16-.1-6.37-.16-9.63-.23-2.07,0-4.17-.09-6.27-.12l2,0q6.36,0,12.61-.17l12.3-.23c16.16-.35,31.24-.88,44.17-1.48,6.46-.3,12.39-.63,17.64-.94s9.83-.63,13.6-.89,6.73-.53,8.75-.68l3.1-.28-3.1-.28c-2-.15-5-.44-8.75-.68s-8.35-.6-13.6-.89-11.18-.65-17.64-.94c-12.93-.6-28-1.13-44.17-1.48l-12.3-.23c-2.78-.05-5.6-.09-8.42-.12h1.41q7.75,0,15.35-.17l15-.23c19.67-.35,38-.88,53.77-1.48,7.87-.29,15.08-.64,21.48-1s12-.62,16.56-.89,8.2-.53,10.66-.68l3.77-.28Z"/><path class="cls-1" d="M995.37,389.74c-2.76.5-7.15.45-10.65-8s-13.21-27-17.28-33.08-17.39-16.48-23.26-19a11.45,11.45,0,0,1-7-10.84c0-2.94,1.58-3.27,1.58-3.27l-.33-.33a1.08,1.08,0,0,0,0-.13c-.18-4.8-3.28-9.59-4.78-14.05-2-5.92-3.6-12-6.07-17.72-.6-1.41-1.32-2.93-2.15-4.5a44.5,44.5,0,0,0-1.13-5.76c-3.61-14.15-4.67-14.75-6.62-16.71s-3.16-3-4.06-7.23-19.72-24.24-22.73-33-7.68-32.67-12-37-6.17-11.29-9.33-14.45-6-9.33-12.65-10.54S836.7,154,836.7,154c-8.81,1.81-10.61,4.29-16.48-1.58s-9.94-8.13-11.74-8.13-5.87-1.73-11.06,1.43c-2.45,1.49-4.71,6.26-7,6.55-2.57.33-10.24-4.94-11.26-6-1.92-1.92-5.46-2.45-6.36-9.22s-.33-5.9-.9-7.71-.45-3.73-1.13-5.42.57-3.5-.68-4.74-.79-4-.79-4-2.26-2-3,0-1.47,2.15-1.47,4.18v8.47s-2.15-1.24-2.48.79,1.47,4.52,1.47,5.76-.36,1.94.88,5.44.47,4,2.39,6,6.16,3.53,19.15,14.46c1,.87-14.64-4.75-20.06-7.23s-11.29-6.55-12.53-6.55-2.77-1.52-3.78-2.54-1.3-9-2.2-11.91-2.71-1.81-2.71-2.94.68-3.61,0-5.42-.06-3.78-.68-4.4.76-1.89-.62-3.27.27-1.85-1.38-3.5-1.53-4-2.74-4-2.53.59-2.53,1.31-1.16,1-1.16,1.88,0,5.84,0,5.84a6.69,6.69,0,0,0-2.48.79c-.51.51-.51,4.29-.51,5.08s2.77,9.26,2.77,13.89-.06,8.64,3.16,11.85,4.74,5.42,4.74,7.34-1.13,5.08,2,6.77,10,5,10.73,7.45,13.21,6.77,18.74,8.92c2.36.91,9.11,3.07,16.08,5.25q0,1.67-.07,3.34a1.34,1.34,0,0,0,1.31,1.31c5.58.34,10.49,3.44,16,4.2,6.35.87,12.28,2.85,18.5,4.27a33.34,33.34,0,0,1,9.94,3.7c.3,5.56,6.75,22.32,12.33,27.91s8.73,16.56,8.73,20.47-1.51,6.62-.9,9.48,1.13,3.39,1.73,4-1.67,2-1.8,2.93c-1,1.14-1.88,2.3-2.78,3.49-3.05,2.63-6,5.39-9,8-4.2,3.66-8.48,7-12.26,11.15-2.87,3.13-6.22,6-9.09,9.2-2.37,1.29-5.06,3.12-5.26,5.55-.14,1.69,1.07,3,2.87,4.11a7.54,7.54,0,0,0-.91,2.88c-.4,2.54,3.35,12.06,7.56,21.39s9,34.62,9,38.84-2.78,8.43-2.78,8.43a1.46,1.46,0,0,0-2.11,0c-1.05,1.05-3.46,1.2-6.78,4.52s-8.73,2.41-12.19,4.21-3.54,4.14-1.66,6,7.53,3.76,14.15,3.76,12.94-2.26,18.06-.75,11-.3,11-6.77,1.58-8.2-.75-10.54-4.06-9.18-4.06-14.15,2.86-14.9,3.46-18.37,0-13.7-1.65-19.72c-1.34-4.85-2.57-7.94-1.74-10.22a8.58,8.58,0,0,0,6.32-1.64c2.51-1.85,4.36-4.08,7.23-5.49a89.47,89.47,0,0,1,10.76-4.1c2.32-.79,4.71-1.61,7.09-2.49,1.84,1.49,4.67,4.17,7.83,7.25,2.37,3.25,4.95,6.39,7.23,9.69,1.5,2.17,2.62,4.59,4.11,6.77,2,3,3.85,4.92,7.08,3.07.79-.45,1.64-.88,2.53-1.31.33.41.79,1,1.47,2,1.88,2.63,1.73,8,7.38,9.79s12.19,4.52,17.39,11.74S979,395.38,979,399.67s2.94,2.71,0,5.64-7.45,5-9.48,7-1.58,4.06-4.29,6.78-10.61,7.68-4.74,9.48,7.45,5.19,18.29,0a41.3,41.3,0,0,0,15.81-12.64c1.15-1.15,2.71,0,4.52-4.74s4.77-4.62,3.84-9.48C1001.54,394.63,996.52,389.53,995.37,389.74Zm-202-202.65-.08-.37a3.26,3.26,0,0,0,.23.38Zm138.8,120.32h0l0-.07Zm-109.25-4-.5.51C822.42,303.78,822.59,303.63,822.9,303.4Z"/><path class="cls-1" d="M1081.87,401.67c-2.46-.15-6.07-.44-10.66-.68s-10.16-.61-16.56-.89-13.61-.66-21.48-1c-15.74-.6-34.1-1.13-53.77-1.48l-15-.23q-7.59-.12-15.35-.17c-10.33-.11-20.82-.12-31.31-.14s-21,0-31.31.15l-15.35.17-15,.24c-19.67.35-38,.88-53.77,1.48-7.87.29-15.08.64-21.48.95s-12,.62-16.56.88-8.2.53-10.66.68l-3.77.28,3.77.28c2.46.15,6.07.43,10.66.68s10.16.6,16.56.88,13.61.65,21.48.95c15.74.6,34.1,1.13,53.77,1.48l15,.24,15.35.17,2.5,0-9.52.13-12.3.24c-16.16.35-31.24.88-44.17,1.48-6.46.3-12.39.63-17.64.94s-9.83.63-13.6.89-6.73.53-8.75.68l-3.1.28,3.1.28c2,.15,5,.43,8.75.68s8.35.6,13.6.89,11.18.64,17.64.94c12.93.6,28,1.13,44.17,1.48l12.3.24,12.61.17,2.85,0-7.12.13c-3.25.07-6.47.14-9.63.24-12.64.35-24.45.88-34.56,1.48-5.06.3-9.69.62-13.8.93s-7.69.63-10.64.89-5.27.53-6.85.68l-2.42.28,2.42.28c1.58.15,3.9.43,6.85.68s6.53.6,10.64.89,8.75.63,13.8.93c10.12.6,21.92,1.13,34.56,1.48,3.16.09,6.37.16,9.63.24s6.55.13,9.87.17l3.36,0c-1.64,0-3.28.07-4.89.12-2.35.07-4.67.13-7,.24-9.13.35-17.65.88-25,1.48-3.65.3-7,.62-10,.93s-5.55.64-7.68.9-3.8.53-4.95.68l-1.75.28,1.75.28c1.14.15,2.82.43,4.95.68s4.72.6,7.68.9,6.32.62,10,.93c7.3.6,15.83,1.13,25,1.48,2.28.1,4.6.17,7,.24s4.73.14,7.12.17c4.79.11,9.66.12,14.53.15s9.74,0,14.53-.14q3.6,0,7.12-.17c2.35-.07,4.67-.13,7-.23,9.13-.35,17.65-.88,25-1.48,3.65-.31,7-.62,10-.93s5.55-.64,7.68-.9,3.8-.53,4.95-.68l1.75-.28-1.75-.28c-1.14-.15-2.82-.44-4.95-.68s-4.72-.6-7.68-.9-6.32-.63-10-.93c-7.3-.6-15.83-1.13-25-1.48-2.28-.11-4.6-.16-7-.23-1.47,0-3-.07-4.46-.11l2.93,0q5,0,9.87-.17c3.25-.07,6.47-.14,9.63-.23,12.64-.35,24.45-.88,34.56-1.48,5.06-.3,9.69-.63,13.8-.94s7.69-.64,10.64-.9,5.27-.53,6.85-.68l2.42-.28-2.42-.28c-1.58-.15-3.9-.44-6.85-.68s-6.53-.6-10.64-.9-8.75-.64-13.8-.94c-10.12-.6-21.92-1.13-34.56-1.48-3.16-.1-6.37-.16-9.63-.23-2.07,0-4.17-.09-6.27-.12l2,0q6.36,0,12.61-.17l12.3-.23c16.16-.35,31.24-.88,44.17-1.48,6.46-.3,12.39-.63,17.64-.94s9.83-.63,13.6-.89,6.73-.53,8.75-.68l3.1-.28-3.1-.28c-2-.15-5-.44-8.75-.68s-8.35-.6-13.6-.89-11.18-.65-17.64-.94c-12.93-.6-28-1.13-44.17-1.48l-12.3-.23c-2.78-.05-5.6-.09-8.42-.12h1.41q7.75,0,15.35-.17l15-.23c19.67-.35,38-.88,53.77-1.48,7.87-.29,15.08-.64,21.48-1s12-.62,16.56-.89,8.2-.53,10.66-.68l3.77-.28Z"/><path class="cls-1" d="M492.28,406.91c8.78-2.19,8.41,1.46,14,3.17s27.06,5,29.62-1c1-2.43,1.71-5.61-5.61-9s-7.92-5.73-10.6-8.41-9.63-5.49-8.41-8.9-2-7.31,9-20.48,23.89-24.87,27.06-36.08c1.65-5.85,1.85-6.06,3.18-7.11a14.18,14.18,0,0,0,2.57.59,2.32,2.32,0,0,0,2-1.18,70.82,70.82,0,0,0,5.1-11.06,202.11,202.11,0,0,1,14.56-18.56c.82,2.37,1.37,4.89,2,6.79,1.92,5.67,5.21,10.61,8,15.86a2.17,2.17,0,0,0,2.94.77c2.06-1.3,4.16-2.55,6.25-3.81l3.55,3.55s-7.8,14.38-7.8,24.62,3.82,12.6,2.68,20.88-7.35,17.71-7.35,19-.45.49-1.75,1.79-1.06,10.24,1.06,14,5.52,8.49,15.11,5.89,30.47,0,35.67-1,7.88-8.37,4.71-11.54-15.93-3.25-17.39-6.5-5.16-4-6.79-4-4.1-4.63-4.1-4.63,5.69-22.1,10.08-29.58,12.19-32.18,15.44-38.68,2.11-13.16-1.63-16.9c-1.21-1.21-4.11-5.5-7.66-10.93a18.33,18.33,0,0,1,1.83-1.57,2.28,2.28,0,0,0,.8-3.06c-2.1-3.29-5.33-4.91-8.15-7.47-4-3.59-6.69-8.82-10.1-13-1.7-2.06-3.28-4.14-4.77-6.28,1.52-.5,5.29-2.38,9.61-9.33,5.61-9,8.29-26.33,8.29-35.35s-1.22-22.67-1.22-26.08a44.74,44.74,0,0,0-.4-5c1.76,1.33,3.51,2.63,5.2,3.93a1.17,1.17,0,0,0,1.7-.69,16.78,16.78,0,0,1,2-4.53,26.25,26.25,0,0,0,9.52-.82c13.16-3.41,37.79-13.41,43.88-16.58s7.31-7.31,9.51-9.51,4.88-5.85,4.88-10.24.49-10.6-.49-13.9,0-8.53,0-10.6a27.29,27.29,0,0,1,.49-4.51c-1.64-1.65-2.8-2.68-2.8-4.75s-1.34-2.8-1.34-3.41.57-1.58-.41-1.58-2,.32-2,1.06a21.23,21.23,0,0,1-1.14,4c-.57,1.79-2.52,7.07-2.52,11.7a92.39,92.39,0,0,1-1.58,15.56c-.85,4.27-.85,7.19-3.17,8a25.74,25.74,0,0,1-4.54,1c-6.58,4.31-18.48,7.44-21.72,7.3a1.5,1.5,0,0,1-.67-.2c-1.89,1-4.1,1.67-5.7.06a.36.36,0,0,1,.25-.61,12.77,12.77,0,0,0,3.35-.67c.46-.13.9-.28,1.35-.43a1.45,1.45,0,0,1,.66-.93c5.64-3.54,11.73-6.91,16.65-11.46a4.08,4.08,0,0,1,.25-2.1,19,19,0,0,0,2.07-6.09c0-1.1,3.78-4.39,2.93-6.83s-2.68-2.56-3.78-1.46-2.56,3.17-2.56.24-1.46-5.48,2-10.6,4.14-8.53,3.41-9.26-.06-2.86-.73-3.53-.28-2.15-1.54-2-.91,1.6-1.34,2-.65-1.22-1.26,0-.75,2.46-.93,2.64a7.78,7.78,0,0,0-1.83,2.8,80.5,80.5,0,0,0-3.13,9.59c-.29,1.26-2.84,4.92-2.84,6.54s.9,9.1-.49,10.48-10,6.62-11.86,8.45-2.6,1.87-3.74,3.74-5,2.84-6.83,3.66-3.7,1.43-4.18,3c-1.81-1.38-3.59-2.83-5.29-4.34l-.85-.76a29.08,29.08,0,0,1-2.36-4.93c0-.41,3,.08,4.06-1l2.8-2.8c.89-.89,7.76-3.13,10.44-7.11s2.68-7.64,4.79-9.75,6.26-9,6.26-12.35-.16-4.79.41-5.36a31.82,31.82,0,0,1,5.26-3.74c1-.37-.43-4.75-4-6.46s-3.23-.55-6.76-1.71-8.35-6.52-12.25-7.07-10.06-1.77-14.32,2.5-4,6.64-6.7,8.59-2.74,1.83-4.2,5.36-.49,5.79-2.5,8.53c-1.43,2-1.42,2.36-2.59,2.54a10.79,10.79,0,0,1-.72-3.12,1.64,1.64,0,0,0-1.61-1.61c-5.09.26-9.73,3.62-14.15,5.9a13.79,13.79,0,0,0-1.84,1.14,9.85,9.85,0,0,0-4.2,1.37c-4.14,2.56-29.66,38.15-29.66,50.5s-2.28,16.09-4.63,17-2.52,2.19-2.52,5.28-3.25,8.13-4.39,13.49,2.52,7.72-4.06,14.3-10.89,7.8-13.65,16.25c0,0-2.92,7.64-1.46,8.61s-1,1.79-2.28,4.71-4.22,17.88-1.79,23.89c0,0-1.14,5.65.2,7a3.54,3.54,0,0,1,.47.57,40.89,40.89,0,0,1-10.95,17.76c-4.35,4.12-9.05,7.92-11.25,13.66a2.35,2.35,0,0,0,1.07,2.63c3.33,2,6.62,4.24,10,6.4A76.63,76.63,0,0,1,502.77,325c-10.24,14.63-12.43,30.72-15.36,41.93s-2.44,14.38-5.61,17.55-2.44.73-2.44,10.48S483.51,409.11,492.28,406.91ZM652.1,138.42a.08.08,0,0,1,0,.16A.08.08,0,0,1,652.1,138.42ZM515,296.28l-.66-.19.72,0Zm73.65,7.1-.27-.49.36.36Zm-2.46-2.67h0Zm39.34-30.06-.1.09L625,270C625.18,270.24,625.36,270.44,625.54,270.65ZM607.48,95.11l.08.21-.41-.08ZM577.24,286.37l0,0a1.69,1.69,0,0,0,0,.26c.22.75.45,1.48.68,2.22-.33-.71-.68-1.44-1.08-2.16Z"/><path class="cls-1" d="M723.83,401.67c-2.46-.15-6.07-.44-10.66-.68s-10.16-.61-16.56-.89-13.61-.66-21.48-1c-15.74-.6-34.1-1.13-53.77-1.48l-15-.23q-7.59-.12-15.35-.17c-10.33-.11-20.82-.12-31.31-.14s-21,0-31.31.15l-15.35.17-15,.24c-19.67.35-38,.88-53.77,1.48-7.87.29-15.08.64-21.48.95s-12,.62-16.56.88-8.2.53-10.66.68l-3.77.28,3.77.28c2.46.15,6.07.43,10.66.68s10.16.6,16.56.88,13.61.65,21.48.95c15.74.6,34.1,1.13,53.77,1.48l15,.24,15.35.17,2.5,0-9.52.13-12.3.24c-16.16.35-31.24.88-44.17,1.48-6.46.3-12.39.63-17.64.94s-9.83.63-13.6.89-6.73.53-8.75.68l-3.1.28,3.1.28c2,.15,5,.43,8.75.68s8.35.6,13.6.89,11.18.64,17.64.94c12.93.6,28,1.13,44.17,1.48l12.3.24,12.61.17,2.85,0-7.12.13c-3.25.07-6.47.14-9.63.24-12.64.35-24.45.88-34.56,1.48-5.06.3-9.69.62-13.8.93s-7.69.63-10.64.89-5.27.53-6.85.68l-2.42.28,2.42.28c1.58.15,3.9.43,6.85.68s6.53.6,10.64.89,8.75.63,13.8.93c10.12.6,21.92,1.13,34.56,1.48,3.16.09,6.37.16,9.63.24s6.55.13,9.87.17l3.36,0c-1.64,0-3.28.07-4.89.12-2.35.07-4.67.13-7,.24-9.13.35-17.65.88-25,1.48-3.65.3-7,.62-10,.93s-5.55.64-7.68.9-3.8.53-4.95.68l-1.75.28,1.75.28c1.14.15,2.82.43,4.95.68s4.72.6,7.68.9,6.32.62,10,.93c7.3.6,15.83,1.13,25,1.48,2.28.1,4.6.17,7,.24s4.73.14,7.12.17c4.79.11,9.66.12,14.53.15s9.74,0,14.53-.14q3.6,0,7.12-.17c2.35-.07,4.67-.13,7-.23,9.13-.35,17.65-.88,25-1.48,3.65-.31,7-.62,10-.93s5.55-.64,7.68-.9,3.8-.53,4.95-.68l1.75-.28-1.75-.28c-1.14-.15-2.82-.44-4.95-.68s-4.72-.6-7.68-.9-6.32-.63-10-.93c-7.3-.6-15.83-1.13-25-1.48-2.28-.11-4.6-.16-7-.23-1.47,0-3-.07-4.46-.11l2.93,0q5,0,9.87-.17c3.25-.07,6.47-.14,9.63-.23,12.64-.35,24.45-.88,34.56-1.48,5.06-.3,9.69-.63,13.8-.94s7.69-.64,10.64-.9,5.27-.53,6.85-.68l2.42-.28-2.42-.28c-1.58-.15-3.9-.44-6.85-.68s-6.53-.6-10.64-.9-8.75-.64-13.8-.94c-10.12-.6-21.92-1.13-34.56-1.48-3.16-.1-6.37-.16-9.63-.23-2.07,0-4.17-.09-6.27-.12l2,0q6.36,0,12.61-.17l12.3-.23c16.16-.35,31.24-.88,44.17-1.48,6.46-.3,12.39-.63,17.64-.94s9.83-.63,13.6-.89,6.73-.53,8.75-.68l3.1-.28-3.1-.28c-2-.15-5-.44-8.75-.68s-8.35-.6-13.6-.89-11.18-.65-17.64-.94c-12.93-.6-28-1.13-44.17-1.48l-12.3-.23c-2.78-.05-5.6-.09-8.42-.12H591q7.75,0,15.35-.17l15-.23c19.67-.35,38-.88,53.77-1.48,7.87-.29,15.08-.64,21.48-1s12-.62,16.56-.89,8.2-.53,10.66-.68l3.77-.28Z"/><path class="cls-1" d="M62.12,97c.88.34.55,1.18,1.56,1.18a12.06,12.06,0,0,1,4.93,1.69,4.83,4.83,0,0,1,1.14,3.5c0,1.64,0,4.76,0,5.73s-1,9.49,1.44,11.93c2.12,2.12,3.85,3.1,4.28,4.53a14.59,14.59,0,0,0,4.89,12.69c4.29,3.9,10,6.19,15.7,7.88,4.06,2,8,3.86,12.48,4.26a14.08,14.08,0,0,0,3.54,1.75,22.88,22.88,0,0,0,4.55.93,42.84,42.84,0,0,0,7.11.69l2.26,0,.34.11c7.76,2.77,16.06,2.15,24,4.05,8.18,2,15.35,7.13,21.37,12.84A101.22,101.22,0,0,1,192.31,199c1.76,7.46,2,15.76,2,22.28,0,8.85,6.58,17.2,6.58,19.48s2.15,4.43,2.15,4.43-1.14,7.46-4.17,7.46-24.54,19.48-30.61,25.55-10.12,8.85-8.1,19.23-1.26,40.73,1.77,48.83a65,65,0,0,1,3.19,16.12A68.64,68.64,0,0,0,163,373.9c-.13,1.16,1.06,2,2.09,2.09s2.24.16,3.36.3a2.21,2.21,0,0,0,1.53,1.48l.78.2a3.68,3.68,0,0,1-3.19,1.92c-3.29,0-2.79-.51-6.83,3.54S149.82,391,145.27,391s-12.65.51-12.65,2.78-1.27,4.81,9.36,6.58,23.28.25,34.91.25,19.73.25,19.73-2.53,2.28-6.58,2.28-8.86-1.77-7.84-3-9.11c-.25-.25-.55-.51-.88-.78,2.81-.78,5.36-2.42,6.39-4.76,3.4-7.71-5.73-16.16-6.28-23.62a1.1,1.1,0,0,0-.72-1c-3-13.89-.23-29-1.39-43-.12-1.39-.22-2.82-.46-4.19l0-.1a7,7,0,0,0-.43-3.59,2.78,2.78,0,0,1,.7-.94c1.55-1.42,6-2.72,7.79-3.65,7.68-4,15.51-7.65,23.35-11.28,8.58-4,16.69-7.53,23.25-13.4.88,1,26,30,33.18,37.23s17.71,12.9,17.71,17.71,10.37,19.48,13.41,22.52S330,362.18,330,365.72s14.93,20.49,16.07,21.63,2.91,1.27-.63,2.91a20,20,0,0,1-8.86,1.64c-2,0-6.39,2.72-5.69,3.42s-4.3,7,15.18,5.57,41.74-.38,40.61-5.06a39.82,39.82,0,0,1-1.14-9.87c0-1.11-1.07-3.75-2.21-5.8-.26-5.38-3.74-10.84-7-14.74-2.85-3.38-6.13-4.93-10-6.93A15.66,15.66,0,0,1,364,357a219.1,219.1,0,0,0-17.05-19.38l-.12-.12a74.58,74.58,0,0,1-5.8-7.71c-3-4.71-5.76-8.86-10-12.62-4.44-3.95-8.89-7.57-12.33-12.49-.94-1.35-1.85-2.72-2.75-4.07a59.08,59.08,0,0,0-4.7-10.66c-3.26-5.66-6.8-11.25-10.25-16.8s-7.34-10.8-9.69-17.12c-3.74-10.08-6.77-22-13.36-30.68-.47-.62-1-1.22-1.48-1.82,0-2.62-.23-7.44-2.91-10.12l-7.84-7.84c-2.91-2.91-2.91-2-2.91-5.82s-6.9-4.36-8.48-9.11-5.44-11.7-8.54-11.7-8.16-11.07-11.19-17.14-13.66-24-14.93-28.59-3.29-6.58-7.08-10.37-8.6-5.06-14.17-5.06-12.4.51-12.4.51-4.55.59-4.81-5.48c-.1-2.38,3.16-6.28,3.16-9.15s1.05-9.83-.8-14.72c-2.28-12.31-28.93-10.63-33-6.58s-5.69,6.58-5.69,8.22-.13,1.64-.89,4.81-1,8.22-.25,9-1.52,4.93-1.52,7.84-.38,4,1.14,4,3.16-.59,3.16.38,0,2.36.68,3a22.23,22.23,0,0,0,1.9,1.26c.36.36.13.59-.19.91s-.42.59,0,1l.95.95a2,2,0,0,1,1.14,2c0,1.52.19,3.1,1.46,3.67a7.37,7.37,0,0,0,3.42.25c.76,0,2.94,0,3.67.76a17,17,0,0,0,3.79,1.83l3.35.44s-15.75.25-18.91-1c-1.64-.66-10-3.16-19.17-5.41A145.51,145.51,0,0,0,111.84,121c-5-1.16-10-2.19-15-3.52a13.84,13.84,0,0,1-1.91-4.64C93.43,107.57,93,96.1,85.06,96.69c-.91.07-1.94.79-1.83,1.83a8.62,8.62,0,0,0,1.33,4.11,8.86,8.86,0,0,1,1.58,7.16c-.51,3.59.67,6.5,2.1,9.48-2.78-.82-4.58-1.49-4.58-1.49s1.65-2.28,0-5.95-3.54-8-3.54-8-2.4.51-3.86-3.86-3-6.51-6-6.51-10,1-9.57,2S61.23,96.62,62.12,97Zm135,276.23a10.19,10.19,0,0,0,.52-2.5c0-.33,0-.8,0-1.36l.08-.12C198.11,371.16,197.83,372.38,197.14,373.18ZM309.72,300a1.79,1.79,0,0,0,.34,0l.25.79Zm61.64,67.08c0,.07,0,.14,0,.21l-.28-.44ZM284.75,248.66l0,0v-.08Z"/><path class="cls-1" d="M416.83,401.67c-2.46-.15-6.07-.44-10.66-.68s-10.16-.61-16.56-.89-13.61-.66-21.48-1c-15.74-.6-34.1-1.13-53.77-1.48l-15-.23q-7.59-.12-15.35-.17c-10.33-.11-20.82-.12-31.31-.14s-21,0-31.31.15l-15.35.17-15,.24c-19.67.35-38,.88-53.77,1.48-7.87.29-15.08.64-21.48.95s-12,.62-16.56.88-8.2.53-10.66.68l-3.77.28,3.77.28c2.46.15,6.07.43,10.66.68s10.16.6,16.56.88,13.61.65,21.48.95c15.74.6,34.1,1.13,53.77,1.48l15,.24,15.35.17,2.5,0-9.52.13-12.3.24c-16.16.35-31.24.88-44.17,1.48-6.46.3-12.39.63-17.64.94s-9.83.63-13.6.89-6.73.53-8.75.68l-3.1.28,3.1.28c2,.15,5,.43,8.75.68s8.35.6,13.6.89,11.18.64,17.64.94c12.93.6,28,1.13,44.17,1.48l12.3.24,12.61.17,2.85,0-7.12.13c-3.25.07-6.47.14-9.63.24-12.64.35-24.45.88-34.56,1.48-5.06.3-9.69.62-13.8.93s-7.69.63-10.64.89-5.27.53-6.85.68l-2.42.28,2.42.28c1.58.15,3.9.43,6.85.68s6.53.6,10.64.89,8.75.63,13.8.93c10.12.6,21.92,1.13,34.56,1.48,3.16.09,6.37.16,9.63.24s6.55.13,9.87.17l3.36,0c-1.64,0-3.28.07-4.89.12-2.35.07-4.67.13-7,.24-9.13.35-17.65.88-25,1.48-3.65.3-7,.62-10,.93s-5.55.64-7.68.9-3.8.53-4.95.68l-1.75.28,1.75.28c1.14.15,2.82.43,4.95.68s4.72.6,7.68.9,6.32.62,10,.93c7.3.6,15.83,1.13,25,1.48,2.28.1,4.6.17,7,.24s4.73.14,7.12.17c4.79.11,9.66.12,14.53.15s9.74,0,14.53-.14q3.6,0,7.12-.17c2.35-.07,4.67-.13,7-.23,9.13-.35,17.65-.88,25-1.48,3.65-.31,7-.62,10-.93s5.55-.64,7.68-.9,3.8-.53,4.95-.68l1.75-.28-1.75-.28c-1.14-.15-2.82-.44-4.95-.68s-4.72-.6-7.68-.9-6.32-.63-10-.93c-7.3-.6-15.83-1.13-25-1.48-2.28-.11-4.6-.16-7-.23-1.47,0-3-.07-4.46-.11l2.93,0q5,0,9.87-.17c3.25-.07,6.47-.14,9.63-.23,12.64-.35,24.45-.88,34.56-1.48,5.06-.3,9.69-.63,13.8-.94s7.69-.64,10.64-.9,5.27-.53,6.85-.68l2.42-.28-2.42-.28c-1.58-.15-3.9-.44-6.85-.68s-6.53-.6-10.64-.9-8.75-.64-13.8-.94c-10.12-.6-21.92-1.13-34.56-1.48-3.16-.1-6.37-.16-9.63-.23-2.07,0-4.17-.09-6.27-.12l2,0q6.36,0,12.61-.17l12.3-.23c16.16-.35,31.24-.88,44.17-1.48,6.46-.3,12.39-.63,17.64-.94s9.83-.63,13.6-.89,6.73-.53,8.75-.68l3.1-.28-3.1-.28c-2-.15-5-.44-8.75-.68s-8.35-.6-13.6-.89-11.18-.65-17.64-.94c-12.93-.6-28-1.13-44.17-1.48l-12.3-.23c-2.78-.05-5.6-.09-8.42-.12H284q7.75,0,15.35-.17l15-.23c19.67-.35,38-.88,53.77-1.48,7.87-.29,15.08-.64,21.48-1s12-.62,16.56-.89,8.2-.53,10.66-.68l3.77-.28Z"/><path class="cls-1" d="M1305.62,673.69c.8-2.11,2-6.22,1.41-6.79s-1.34,1.47-1.61,1.74a21.25,21.25,0,0,0-2.21,3.81,56.18,56.18,0,0,1-1.94,6c-1,2.41-1.87,5.22-2.28,6.42s-6.83,11.51-8.16,11.51-3.21.4-3.21,1.87-25.56-.27-31.32-.27-13.38-.8-15.93-.8-5.62-3.61-10.17-6.29-5.49-6.16-5.49-6.83a11.49,11.49,0,0,1,0-5.89c.94-2.94.94-7.76.94-8.83s4.15-4.15,4.15-8.3,2-6.82.94-10.31-2.27-6-2.27-6.69a22.58,22.58,0,0,0-1.2-3.61l-.46-.75a5.37,5.37,0,0,1,4-.57c.22.05.38-.27.16-.38a6.54,6.54,0,0,0-4.26-.79l0-.07a7.78,7.78,0,0,1,3.33-.62c.34,0,.43-.55.08-.61a11.78,11.78,0,0,0-2.92-.08l.27-.77a6.77,6.77,0,0,1,3.75-1.16c.5,0,.67-.83.12-.92a7.43,7.43,0,0,0-3.32.22c.86-3.45.66-6.83-3.33-8.39-5.29-2.06-12.35,1.13-16.69,4.08-3.89,2.64-7.36,6.22-8.23,10.67-.1.18-.18.35-.26.52-2.54,2-3,6.16-1.43,9.22a19.42,19.42,0,0,0,2.29,3.37,2.36,2.36,0,0,0-1.38,2.09c0,1.41,2.16,4.57,3.21,5.62s3.71.9,3.71,1.71v3s-10.81,2.17-13.75,7.8-11,21.68-11,32.25c0,1.38,0,2.72.06,4a72,72,0,0,0-1.42,11.16,114.7,114.7,0,0,1-2.74,20.3,40.6,40.6,0,0,1-2.54,7.84c-4.61,3.7-12.19,9-8.93,14a11.84,11.84,0,0,0,1,1.31,2.42,2.42,0,0,0,.58,1.72c.7.7.13,3.15-.27,4.42s-4.08,30.38-8.9,42-.8,12-4.82,23.69-18.87,30.92-18.87,38.95-5.62,17.8-5.62,20.21,2.14,4.28,2.14,6.29-2.81,8.7-4.15,12.85-.67,9.5,1.2,11.38.6,5.15,1.47,6,11.91,5.62,16.19,3.75,4.82-3.75,3.35-8.43-5-8.3-5-10.71-1.61-9.23-1.61-10,6.29-3.61,8-7.09,5.22-14.72,7.36-22.35,9.64-21.55,12.71-26.77,9.9-17.4,11.38-20.21,3.88-10,9.9-13.92,4.15-19,6.83-14.72,7.76,4.55,7.76,8.56,1.07,27.44,2.14,30.11,2,3.35,1.07,5.89-2,10.57-2,11.78-1.74,4-2.27,6.43-.54,16.46-.54,21.41-2.94,7.9-2.94,9,.67,3.21.67,4.82-1.21,3.21-1.21,4.82,2.54,4.15,6.16,4.15,11.44,3.28,14.86,6.69,17.53,5,18.87.67-7.69-10.91-10.84-14.05-6.09-8-7.63-9.5-2.54-3.21-1.54-3.21,2.48-.27,2.48-1.47-2.61-5.69-.54-7.76,3.35-7.23,3.35-9.64,1.74-5,3.21-9.37,5.09-13.52,6.29-17.93-.27-24.62-1.87-28.64-3.48-16.86-3.48-21.68a24.92,24.92,0,0,0-1-6.08c.64-1.2,1.14-2.31,1.48-3a22.52,22.52,0,0,0,2.33-5.65,12.39,12.39,0,0,0,.76-1.15,1.09,1.09,0,0,0-.74-1.65c-.46-2.51-2.11-4.62-3.51-6.91a35.92,35.92,0,0,1-2.33-4.58,5.37,5.37,0,0,1,.84-3c1.22-1.22,1.11-16.72.91-26.69,3.56,2.72,7.21,4.4,9.28,2.63l.21,0a17.4,17.4,0,0,0,4.26,1.8,12,12,0,0,0,3.87,1.77c3.55.86,6.48-.56,9.36-2.31,1.94-.57,3.84-1.26,5.78-1.91,4.34-1.45,8.72-2.79,13-4.27,11.78-4,30.44-11.26,28.5-27a.91.91,0,0,0-1.36-.78,8.74,8.74,0,0,0-1.42,1.1,1.63,1.63,0,0,0-.38-.08c.25-1.1.56-.58.56-1.6,0-1.71,2.36-4.47,2.36-6.07,0-.39,0-1,0-1.65.22-.46.42-.93.6-1.4,1.36-3.57,3.69-8.42,2.68-12.27a1.15,1.15,0,0,0-1.69-.68q0-.5,0-1C1305.45,678.85,1304.92,675.54,1305.62,673.69Zm-41,39.45c4.82-2.61,20.48-8.23,23.69-8.23s4.77-.15,5.82-1.2l1.78-1.78.19.07c-.22.86-.83,3.08-1.47,3.72-.8.8-1.76,5-2.61,5.82s-3.81,6.53-5.32,6.53a73.87,73.87,0,0,0-9.13,1.61c-3.31.7-10.24,1.81-12.35,2.31-1.5.36-8.07.76-11.75,1a5.75,5.75,0,0,0-1.22-4.91,48.9,48.9,0,0,0-4-4.31C1253.38,714.3,1261.46,714.88,1264.67,713.14Zm-40-79.2c0,.18,0,.36-.08.54C1224.63,634.37,1224.66,634.18,1224.7,633.94Zm5.25,141.26c-.1-.21-.2-.42-.28-.63s-.06-.41-.09-.61A7.82,7.82,0,0,1,1229.94,775.2Zm-.68-45v-.09l.28.29Zm74.33-43.79q0-.32.05-.64l.23.07C1303.78,686,1303.69,686.2,1303.59,686.39Z"/><path class="cls-1" d="M1343.87,901.17c-2.46-.15-6.07-.44-10.66-.68s-10.16-.61-16.56-.89-13.61-.66-21.48-1c-15.74-.6-34.1-1.13-53.77-1.48l-15-.23q-7.59-.12-15.35-.17c-10.33-.11-20.82-.12-31.31-.14s-21,0-31.31.15l-15.35.17-15,.24c-19.67.35-38,.88-53.77,1.48-7.87.29-15.08.64-21.48.95s-12,.62-16.56.88-8.2.53-10.66.68l-3.77.28,3.77.28c2.46.15,6.07.43,10.66.68s10.16.6,16.56.88,13.61.65,21.48.95c15.74.6,34.1,1.13,53.77,1.48l15,.24,15.35.17,2.5,0-9.52.13-12.3.24c-16.16.35-31.24.88-44.17,1.48-6.46.3-12.39.63-17.64.94s-9.83.63-13.6.89-6.73.53-8.75.68l-3.1.28,3.1.28c2,.15,5,.43,8.75.68s8.35.6,13.6.89,11.18.64,17.64.94c12.93.6,28,1.13,44.17,1.48l12.3.24,12.61.17,2.85,0-7.12.13c-3.25.07-6.47.14-9.63.24-12.64.35-24.45.88-34.56,1.48-5.06.3-9.69.62-13.8.93s-7.69.63-10.64.89-5.27.53-6.85.68l-2.42.28,2.42.28c1.58.15,3.9.43,6.85.68s6.53.6,10.64.89,8.75.63,13.8.93c10.12.6,21.92,1.13,34.56,1.48,3.16.09,6.37.16,9.63.24s6.55.13,9.87.17l3.36,0c-1.64,0-3.28.07-4.89.12-2.35.07-4.67.13-7,.24-9.13.35-17.65.88-25,1.48-3.65.3-7,.62-10,.93s-5.55.64-7.68.9-3.8.53-4.95.68l-1.75.28,1.75.28c1.14.15,2.82.43,4.95.68s4.72.6,7.68.9,6.32.62,10,.93c7.3.6,15.83,1.13,25,1.48,2.28.1,4.6.17,7,.24s4.73.14,7.12.17c4.79.11,9.66.12,14.53.15s9.74,0,14.53-.14q3.6,0,7.12-.17c2.35-.07,4.67-.13,7-.23,9.13-.35,17.65-.88,25-1.48,3.65-.31,7-.62,10-.93s5.55-.64,7.68-.9,3.8-.53,4.95-.68l1.75-.28-1.75-.28c-1.14-.15-2.82-.44-4.95-.68s-4.72-.6-7.68-.9-6.32-.63-10-.93c-7.3-.6-15.83-1.13-25-1.48-2.28-.11-4.6-.16-7-.23-1.47,0-3-.07-4.46-.11l2.93,0q5,0,9.87-.17c3.25-.07,6.47-.14,9.63-.23,12.64-.35,24.45-.88,34.56-1.48,5.06-.3,9.69-.63,13.8-.94s7.69-.64,10.64-.9,5.27-.53,6.85-.68l2.42-.28-2.42-.28c-1.58-.15-3.9-.44-6.85-.68s-6.53-.6-10.64-.9-8.75-.64-13.8-.94c-10.12-.6-21.92-1.13-34.56-1.48-3.16-.1-6.37-.16-9.63-.23-2.07,0-4.17-.09-6.27-.12l2,0q6.36,0,12.61-.17l12.3-.23c16.16-.35,31.24-.88,44.17-1.48,6.46-.3,12.39-.63,17.64-.94s9.83-.63,13.6-.89,6.73-.53,8.75-.68l3.1-.28-3.1-.28c-2-.15-5-.44-8.75-.68s-8.35-.6-13.6-.89-11.18-.65-17.64-.94c-12.93-.6-28-1.13-44.17-1.48l-12.3-.23c-2.78-.05-5.6-.09-8.42-.12h1.41q7.75,0,15.35-.17l15-.23c19.67-.35,38-.88,53.77-1.48,7.87-.29,15.08-.64,21.48-1s12-.62,16.56-.89,8.2-.53,10.66-.68l3.77-.28Z"/><path class="cls-1" d="M965.8,868.5c0-3.59.85-12.65-1-16.43s-7.18-15.1-7.18-18.31-15.67-33.23-20.2-37.76-10.57-17.18-10.57-21.34-4.63-4.49-3.68-7.7a15.63,15.63,0,0,0,.94-6.42c0-3,1.51-3.4,0-7.36s-8.18-27.94-10.32-30.09-2.14-5-2.14-6.8a8.52,8.52,0,0,0-2.14-6c-1.76-1.76-2.77-8.06-2.77-13.09V673.5c0-7-6.42-29.58-10.07-33.23s-14.48-14-16.62-16.11-2.77-4-4-4-4.31.09-4.31.09l-1.18-2a5.52,5.52,0,0,1,1.09-3.37,7.29,7.29,0,0,0,1.29-4.12c0-1.26-.32-4.34-1.32-6a3.78,3.78,0,0,0-1.82-1.75,17.1,17.1,0,0,0-1.58-10.24c-.49-2.72-1.56-6-4.9-7a113.12,113.12,0,0,0-14.35-3.21,15.5,15.5,0,0,0-6.47,1.35c-3.6-.62-7.24-.17-9.88,1.74-7.76,5.58-6.4,19.81,1.3,24.8a14.42,14.42,0,0,1,1.27,4.78,19.45,19.45,0,0,0,1.89,8.4c1.79,3.59,4.72,5.1,6,7.79s1.23,3.68,2.6,5.05-1.09,3.82-2.45,5.19-4.88,4.72-6.83,5.1-3.27,3-4.78,3-6.36-1.07-8,.57-1,2.58-2.64,2.58-3.65-.69-4.47.13-2.52.06-2.89-.32-2-2.39-3.4-1.38-3.53.69-4.91.38-3.65-1.7-5.41-.82-4.53.19-6.29-.38-4.47-2.14-8.5-2.14a48.67,48.67,0,0,1-10.64-1.7c-2.2-.5-4.91-.69-5.6-2.2s-4.09-9.28-4.66-11-.13-8.53-.69-9.66-.57-9.06-.57-9.57S761.82,612.2,761,613s-1.45,1.19-1.45,1.45-.63,3.52-.63,4.41-.63,3.78-.63,5.66.38,6.39.38,6.39-.47,3.59,0,5.1a2.15,2.15,0,0,1-.75,2.74c-.8.8-.57,3.21,0,3.78s1.07-.46,1.59-.46,0,3-.24,3.67-2.17,2.27.79,5.22l5.22,5.22c1.2,1.2.13,4.15,1.2,5.22S806,673,808.65,673.5s3.75-1.13,3.75,0,4.53,1.13,5.19,1.13,6.09-1.09,6.89-1.89,4.44-.94,6.23-.94,5.57,1.23,5.57-.57,3.87-1.51,3.87-1.51a12.22,12.22,0,0,1,1.1,8.56c-1.1,5-3,6.29-3,10.83s4.47,8.18,4.47,9.6-1.32,3.21-4.15,3.21-8.4,1-9.54,2.17-1.6,2.55-3.87,1.61-8.69.09-16.14.09-6.8-2.64-6.8-3.49a8.65,8.65,0,0,0-2.36-4.25c-1.28-1.27-2.74-7.17-3.68-9.06a47.73,47.73,0,0,0-5.76-8.43,5.26,5.26,0,0,0-3.4-1.7,18.35,18.35,0,0,0-1.13,4.34c0,1.38,1.64,2.14,1.64,3s-1,3.53,0,4.53,2.26,7.3,2.26,9.44,2.58,8.5,3.4,9.32,2.33,4,3.65,5.29,2.27,6.17,3.52,9.57l1.76,5s-.88.57,2.58-.31,7,.31,7.61-.31.76-1.13,3.15-1.13,6.67-1.13,7.3-1.13,1.89-1.26,1.89-1.26,5.29.13,5.92.13,4.66.75,5.41,0,9.69-.76,10.57-.76,4.09.82,5.41-.5,1.79,3.87.94,4.72-1.45,16.8,0,22.72,4.66,7.49,3.21,8.94-3.15,4.66-4.28,5.79-4.78,25.43-6.67,33-6.42,19.83-4.91,23.41,10.48,20.11,14.92,24.55,10.67,23.88,14.35,27.57a20.82,20.82,0,0,1,4.91,7.55s.19,3.59-1.51,5.29-10.2,4.53-12.27,4.53-10.57,1.32-10.57,3.21-1.51,5.29,5.38,7.27,18.41,2.17,22.37,1.23,6.23-4.34,7.36-4.34,1.13,3.78,1.13,3.78h4.91c7,0,13.22-.94,13.22-3s.57-7.93-1.32-11.71-2.83-8.12-4.63-7.46-3.49-7.46-3.49-7.93S884,851,882,845.32s-7.46-16-8.87-17.37a10.46,10.46,0,0,1-2.64-7c0-2.83,4.72-7.93,7.36-13s4.91-9.82,6.61-11.52,5-9.1,9.54-2.12,11.71,15.29,16.62,18.31,11.89,10,11.89,10a43.68,43.68,0,0,0,4.91,11.52c3.59,5.85,18.22,26,17.56,26.62s-2.36,5.38-1.13,6.61,2.08,6.61,2.08,7.93-5.29,4.34-5.29,6.61-2.83,3-4.44,6.7S930.78,900,934.55,900s20.68-2,22.85-4.15,2-5.95,3.4-7.36,3.68-2.93,5.66-4.91,2.55-7.27.94-8.87S965.8,872.09,965.8,868.5ZM836.31,587.77l.48-.17c-.28.24-.56.48-.85.74l-.1.06-1.57.82a2,2,0,0,0-.07-.33A9.36,9.36,0,0,1,836.31,587.77Z"/><path class="cls-1" d="M1081.87,901.17c-2.46-.15-6.07-.44-10.66-.68s-10.16-.61-16.56-.89-13.61-.66-21.48-1c-15.74-.6-34.1-1.13-53.77-1.48l-15-.23q-7.59-.12-15.35-.17c-10.33-.11-20.82-.12-31.31-.14s-21,0-31.31.15l-15.35.17-15,.24c-19.67.35-38,.88-53.77,1.48-7.87.29-15.08.64-21.48.95s-12,.62-16.56.88-8.2.53-10.66.68l-3.77.28,3.77.28c2.46.15,6.07.43,10.66.68s10.16.6,16.56.88,13.61.65,21.48.95c15.74.6,34.1,1.13,53.77,1.48l15,.24,15.35.17,2.5,0-9.52.13-12.3.24c-16.16.35-31.24.88-44.17,1.48-6.46.3-12.39.63-17.64.94s-9.83.63-13.6.89-6.73.53-8.75.68l-3.1.28,3.1.28c2,.15,5,.43,8.75.68s8.35.6,13.6.89,11.18.64,17.64.94c12.93.6,28,1.13,44.17,1.48l12.3.24,12.61.17,2.85,0-7.12.13c-3.25.07-6.47.14-9.63.24-12.64.35-24.45.88-34.56,1.48-5.06.3-9.69.62-13.8.93s-7.69.63-10.64.89-5.27.53-6.85.68l-2.42.28,2.42.28c1.58.15,3.9.43,6.85.68s6.53.6,10.64.89,8.75.63,13.8.93c10.12.6,21.92,1.13,34.56,1.48,3.16.09,6.37.16,9.63.24s6.55.13,9.87.17l3.36,0c-1.64,0-3.28.07-4.89.12-2.35.07-4.67.13-7,.24-9.13.35-17.65.88-25,1.48-3.65.3-7,.62-10,.93s-5.55.64-7.68.9-3.8.53-4.95.68l-1.75.28,1.75.28c1.14.15,2.82.43,4.95.68s4.72.6,7.68.9,6.32.62,10,.93c7.3.6,15.83,1.13,25,1.48,2.28.1,4.6.17,7,.24s4.73.14,7.12.17c4.79.11,9.66.12,14.53.15s9.74,0,14.53-.14q3.6,0,7.12-.17c2.35-.07,4.67-.13,7-.23,9.13-.35,17.65-.88,25-1.48,3.65-.31,7-.62,10-.93s5.55-.64,7.68-.9,3.8-.53,4.95-.68l1.75-.28-1.75-.28c-1.14-.15-2.82-.44-4.95-.68s-4.72-.6-7.68-.9-6.32-.63-10-.93c-7.3-.6-15.83-1.13-25-1.48-2.28-.11-4.6-.16-7-.23-1.47,0-3-.07-4.46-.11l2.93,0q5,0,9.87-.17c3.25-.07,6.47-.14,9.63-.23,12.64-.35,24.45-.88,34.56-1.48,5.06-.3,9.69-.63,13.8-.94s7.69-.64,10.64-.9,5.27-.53,6.85-.68l2.42-.28-2.42-.28c-1.58-.15-3.9-.44-6.85-.68s-6.53-.6-10.64-.9-8.75-.64-13.8-.94c-10.12-.6-21.92-1.13-34.56-1.48-3.16-.1-6.37-.16-9.63-.23-2.07,0-4.17-.09-6.27-.12l2,0q6.36,0,12.61-.17l12.3-.23c16.16-.35,31.24-.88,44.17-1.48,6.46-.3,12.39-.63,17.64-.94s9.83-.63,13.6-.89,6.73-.53,8.75-.68l3.1-.28-3.1-.28c-2-.15-5-.44-8.75-.68s-8.35-.6-13.6-.89-11.18-.65-17.64-.94c-12.93-.6-28-1.13-44.17-1.48l-12.3-.23c-2.78-.05-5.6-.09-8.42-.12h1.41q7.75,0,15.35-.17l15-.23c19.67-.35,38-.88,53.77-1.48,7.87-.29,15.08-.64,21.48-1s12-.62,16.56-.89,8.2-.53,10.66-.68l3.77-.28Z"/><path class="cls-1" d="M686,883.08c-.58-.52-2.05-1.84-2.05-3.22s-6-15.3-7.19-19.91a71.78,71.78,0,0,0-11-22.32s-2.44-2-4.22-3.67c3.32-2.41,5.38-5.9,3.14-9.93a13.73,13.73,0,0,0-3.83-3.86,23.62,23.62,0,0,1-5.87-6.09,79.53,79.53,0,0,1-8.81-18,108.29,108.29,0,0,1-4.32-17.9c-.77-4.77-1.21-9.51-3.62-13.78l0,0a11,11,0,0,0-2.84-4.44c-.49-.44-.93-.81-1.34-1.16a53.9,53.9,0,0,0-4.44-4.18c0-1.67-.33,0-2.63-4.16s-10.33-8.46-10.33-11.68-3.85-7.13-3.85-9.9-1-21.86,0-29.92-.77-16.8-3.85-22.32-9.49-11.28-11.8-13.35-4.36-2.07-7.7-2.07-5.9.46-7.44-.92c-.95-.85-2.67-5.27-3.44-9.78.46-2.22,1-4.43,1.28-6.68.7-5.21,0-10.51-4.15-14.11-6.66-5.74-14.68-5.61-22.43-3.39a23.33,23.33,0,0,0-8.37.38c-4.91,1.18-9.67,5.22-10.4,10.42a9.54,9.54,0,0,0,4.05,8.6c.12,1.32-.29,3.69-.29,4.9,0,1.73,1.67,3.22,2.44,3.91s2.82,2.76,2.82,3.8-2.57,4.72-1.28,5.87,3.85.8,4.23,1.15-.32,1.21.39,1.84,1.92-.46,1.92.63a4.65,4.65,0,0,0,1.16,3,3.18,3.18,0,0,1,1.28,2.53c0,1.27,1.67,2.65,4,2a36,36,0,0,1,6.67-1.27c.9,0,3,1.9,3,1.9s4.23,4.08,5,4.77-2.69,4.4-4.52,4.4-5-.55-5.48.66a2.38,2.38,0,0,1-2.25,1.73,13.27,13.27,0,0,0-4.23,1.73c-.42.37-.71-.92-2.37,0s-1.86.69-4,.11-.45,1.78-.45,1.78-2.89-.46-3.72-.46-26.11-5.41-26.81-6-4.56-2.7-5.65-3.68-2.69-4.6-2.69-8.06-.38-7.36,0-7.71-.43-1.08-.43-1.77a2.53,2.53,0,0,0-.48-1.94c-.51-.45-1.35-.56-1.78.65s-1.16,1.42-1.16,2.5-.19,8.54-.19,9,0,1.27-.43.48-2.89-1.29-2.89.22,0,3.84-.19,3.84-4.25-2.11-5.15-8.1a30,30,0,0,1,.45-11.79c.32-1-.13-4.2-.13-6.1s-.38-4.49-1.28-4.49-.9-1.9-.9-2.93-1-1.32-1.28-1-1.44.66-1.8,1a22.07,22.07,0,0,0-1.54,2.93s-.67-1.35-1.09,0a18.89,18.89,0,0,0-1.35,7.19c0,4,.13,5.7-.77,7.77s-1.35,4.49-1.09,8.4.58,5.93,1.41,7.36a10.49,10.49,0,0,0,2.44,3.22c.77.69,2.09,1.92,3.47,3a25.86,25.86,0,0,0,6.63,6.29,29.41,29.41,0,0,0,5.33,2.87,27.93,27.93,0,0,0-1.2,6.4,2,2,0,0,0,1.42,1.87c3.52.79,6.93,2.56,10.22,4,4.8,2.09,9.57,4.23,14.37,6.31,5.74,3.27,11.53,6.32,13.77,7,4.62,1.5,12.83-1.5,14.88-1.5s7.18-2.42,7.18-2.42,1.16.8,1.16,8.4,1.41,10,2.31,12.08,4.22,11.2,6.21,16.39a32.14,32.14,0,0,1-1.37,4.88c-1.37,3.73-2.28,6.2.72,9.13a35.26,35.26,0,0,0,3.32,2.83c-1.27,2-2.43,3.94-3.56,5.73a1.54,1.54,0,0,0-.25,1.14,129.09,129.09,0,0,1-10.29,11.37c-9.26,9.18-14.32,21.71-23.52,31a2.22,2.22,0,0,0,.44,3.45,19.84,19.84,0,0,0,3.61,1.65c-.18.18-.42.4-.73.67-.87.78-1.46,3,.08,5.6s10.07,13.87,13.34,22.5,6.54,15.54,6.54,18.64,5.68,7.77,4,13.2-4.62,6.13-6.93,6.13a14.85,14.85,0,0,0-7.41,2.16c-2.5,1.47-9.81,1.12-9.81,1.81s-6.93,6.13,5,7.6,19,.26,23.48.26,9.72-1.55,12.61-.69,12.32.95,12.32-2.42.48-11.82-1.15-13.29a17.94,17.94,0,0,0-3.56-2.42s-1.83-.37-4.78-6.13-7.06-18.3-7.57-21.52,0-7.37-3.59-13.23-3-8.37-4.11-10.56a7.68,7.68,0,0,1-.53-1.17c3,.64,5.9.41,7.45-2.28.72-1.24.87-2.77,1.41-4.08,1-2.43,2.9-4.39,4.43-6.5,3.22-4.45,5.62-9.55,9.47-13.5q1.26-1.29,2.38-2.64c1.22,1.38,2.53,2.68,3.78,3.9,6.44,6.34,12.15,13.37,18,20.27a93.45,93.45,0,0,0,10.64,10.57c2.4,2.06,4.73,4.54,8,5.08a7.5,7.5,0,0,0,2.24,0h0c1.22,0,.61-.55,2.15.83a61.73,61.73,0,0,1,8.31,11.65c1.67,3.45,6.42,18.64,13.47,23.47a60.5,60.5,0,0,1,3.21,8.28c.77,3.11,1.92,4.95.77,8.06s-6.42,7.82-9.24,10.35-6.16,2.65-5.45,4.89,5.84,7.77,14,5,12.83-4.95,16-8.86a108.62,108.62,0,0,1,7.83-8.29,11.55,11.55,0,0,0,.38-7.94C688,884.92,686.57,883.6,686,883.08ZM545.18,818c-.33.56-.64,1-.95,1.45l-.23-.08C544.4,818.92,544.8,818.46,545.18,818Z"/><path class="cls-1" d="M754,901.17c-2.46-.15-6.07-.44-10.66-.68s-10.16-.61-16.56-.89-13.61-.66-21.48-1c-15.74-.6-34.1-1.13-53.77-1.48l-15-.23q-7.59-.12-15.35-.17c-10.33-.11-20.82-.12-31.31-.14s-21,0-31.31.15l-15.35.17-15,.24c-19.67.35-38,.88-53.77,1.48-7.87.29-15.08.64-21.48.95s-12,.62-16.56.88-8.2.53-10.66.68l-3.77.28,3.77.28c2.46.15,6.07.43,10.66.68s10.16.6,16.56.88,13.61.65,21.48.95c15.74.6,34.1,1.13,53.77,1.48l15,.24,15.35.17,2.5,0-9.52.13-12.3.24c-16.16.35-31.24.88-44.17,1.48-6.46.3-12.39.63-17.64.94s-9.83.63-13.6.89-6.73.53-8.75.68l-3.1.28,3.1.28c2,.15,5,.43,8.75.68s8.35.6,13.6.89,11.18.64,17.64.94c12.93.6,28,1.13,44.17,1.48l12.3.24,12.61.17,2.85,0-7.12.13c-3.25.07-6.47.14-9.63.24-12.64.35-24.45.88-34.56,1.48-5.06.3-9.69.62-13.8.93s-7.69.63-10.64.89-5.27.53-6.85.68l-2.42.28,2.42.28c1.58.15,3.9.43,6.85.68s6.53.6,10.64.89,8.75.63,13.8.93c10.12.6,21.92,1.13,34.56,1.48,3.16.09,6.37.16,9.63.24s6.55.13,9.87.17l3.36,0c-1.64,0-3.28.07-4.89.12-2.35.07-4.67.13-7,.24-9.13.35-17.65.88-25,1.48-3.65.3-7,.62-10,.93s-5.55.64-7.68.9-3.8.53-4.95.68l-1.75.28,1.75.28c1.14.15,2.82.43,4.95.68s4.72.6,7.68.9,6.32.62,10,.93c7.3.6,15.83,1.13,25,1.48,2.28.1,4.6.17,7,.24s4.73.14,7.12.17c4.79.11,9.66.12,14.53.15s9.74,0,14.53-.14q3.6,0,7.12-.17c2.35-.07,4.67-.13,7-.23,9.13-.35,17.65-.88,25-1.48,3.65-.31,7-.62,10-.93s5.55-.64,7.68-.9,3.8-.53,4.95-.68l1.75-.28-1.75-.28c-1.14-.15-2.82-.44-4.95-.68s-4.72-.6-7.68-.9-6.32-.63-10-.93c-7.3-.6-15.83-1.13-25-1.48-2.28-.11-4.6-.16-7-.23-1.47,0-3-.07-4.46-.11l2.93,0q5,0,9.87-.17c3.25-.07,6.47-.14,9.63-.23,12.64-.35,24.45-.88,34.56-1.48,5.06-.3,9.69-.63,13.8-.94s7.69-.64,10.64-.9,5.27-.53,6.85-.68l2.42-.28-2.42-.28c-1.58-.15-3.9-.44-6.85-.68s-6.53-.6-10.64-.9-8.75-.64-13.8-.94c-10.12-.6-21.92-1.13-34.56-1.48-3.16-.1-6.37-.16-9.63-.23-2.07,0-4.17-.09-6.27-.12l2,0q6.36,0,12.61-.17l12.3-.23c16.16-.35,31.24-.88,44.17-1.48,6.46-.3,12.39-.63,17.64-.94s9.83-.63,13.6-.89,6.73-.53,8.75-.68l3.1-.28-3.1-.28c-2-.15-5-.44-8.75-.68s-8.35-.6-13.6-.89-11.18-.65-17.64-.94c-12.93-.6-28-1.13-44.17-1.48l-12.3-.23c-2.78-.05-5.6-.09-8.42-.12h1.41q7.75,0,15.35-.17l15-.23c19.67-.35,38-.88,53.77-1.48,7.87-.29,15.08-.64,21.48-1s12-.62,16.56-.89,8.2-.53,10.66-.68l3.77-.28Z"/><path class="cls-1" d="M452.65,723.94a3.38,3.38,0,0,1-1.56-1c-.3-.3-.8-.11-3.56-.11s-9.75,2.45-11.85,4.55-4.2,4.2-4.48,3.93,1.38-2.2,0-2.2-8.13,5.51-10.89,5.51-14.61-6.75-23-12.12-21-10.06-21-10.06a8.47,8.47,0,0,0,1.06-2.76v-2a2.72,2.72,0,0,0,.78-1.52,2.53,2.53,0,0,1,2.2-2.11c1.2,0,3-1.38,3-2.39s-2.94-5-2.94-6.25,1-1.7,1.65-2.39a2.63,2.63,0,0,0,1-2.39,56.48,56.48,0,0,0-1.76-7.33c2.44-2.67,5.57-3.84,6-8.06a6.47,6.47,0,0,0-5-7.28c-5.23-1.46-11.39-.6-16.78-.75-4-1.79-7.83-4.15-12.16-3.53-5.2.73-8.72,5-10.62,9.55A41.38,41.38,0,0,0,340,690.36c0,.31,0,.62,0,.94-1-.2-2.43-.54-3.82-1-2.39-.73-9.83-1.47-14.61-.18s-23.88,15.62-49.05,35.47-22.6,24.26-28.48,33.81-2.57,24.8-6.24,28.48-23.51,31.61-35.46,37.31-25.17,21.13-27.92,25.54-32,36.57-32,39,7.35,4,8.45,4a20.18,20.18,0,0,1,9.74,5c3.22,3.21,13.41,5.69,21.13,5.69s14.61-4.69,12.13-7.17-13.41-4-13.41-5.51,0-6.8,8.08-18.74,29.76-23,40-26.92,7.44-7.44,18-15.62,25.08-25.09,26.91-23.25,19.11,16.53,17.28,18.37S281.61,845,279.4,851.66s-16.35,28.3-16.35,29-3.31,3.31-4.87,7.35,0,9.46.64,10.11,12.59,3.76,14.15,2.2,26.09,3.67,36.75,1.83,7-8.82,1.47-8.82-17.27-2.2-17.27-5.14,7-15.07,17.27-32,15.8-39,14.88-44.1-25.73-26.45-29-35.09l-.46-1.17c-.15-.86-.31-1.71-.47-2.56-.3-2.25-.53-4.52-.65-6.78q.19-1.45.37-2.89a20.78,20.78,0,0,0,2.31.18c2.2,0,11.39-2.39,12.68-2.39s18.65-14.79,19.75-15.9a40.51,40.51,0,0,0,6.89-8.73c2-3.86,9.09-15.9,10.47-14.52s24.62,12.49,33.26,16.72c4.27,2.09,13.52,3.5,22,4.4,4.53.84,9.12,1.48,13.64,2.14a27.55,27.55,0,0,1,5.17.84c1.86.66,2.46,1.91,3.85,3a3.88,3.88,0,0,0,3.45,1.17c4.77-.69,7.5-6.88,9.28-10.54,2.78-5.72,6.13-11.71,13.09-12.45a.63.63,0,0,0,.53-.36,4.2,4.2,0,0,0,1.33-1.73C453.48,725.13,453.11,723.94,452.65,723.94ZM376.11,672.3l0,.11-.1.12-.21-.08-.29-.14Zm62.44,61.29a10.06,10.06,0,0,1,.78-1.25l.23-.19C439.21,732.61,438.87,733.09,438.55,733.59Z"/><path class="cls-1" d="M416.83,901.17c-2.46-.15-6.07-.44-10.66-.68s-10.16-.61-16.56-.89-13.61-.66-21.48-1c-15.74-.6-34.1-1.13-53.77-1.48l-15-.23q-7.59-.12-15.35-.17c-10.33-.11-20.82-.12-31.31-.14s-21,0-31.31.15l-15.35.17-15,.24c-19.67.35-38,.88-53.77,1.48-7.87.29-15.08.64-21.48.95s-12,.62-16.56.88-8.2.53-10.66.68l-3.77.28,3.77.28c2.46.15,6.07.43,10.66.68s10.16.6,16.56.88,13.61.65,21.48.95c15.74.6,34.1,1.13,53.77,1.48l15,.24,15.35.17,2.5,0-9.52.13-12.3.24c-16.16.35-31.24.88-44.17,1.48-6.46.3-12.39.63-17.64.94s-9.83.63-13.6.89-6.73.53-8.75.68l-3.1.28,3.1.28c2,.15,5,.43,8.75.68s8.35.6,13.6.89,11.18.64,17.64.94c12.93.6,28,1.13,44.17,1.48l12.3.24,12.61.17,2.85,0-7.12.13c-3.25.07-6.47.14-9.63.24-12.64.35-24.45.88-34.56,1.48-5.06.3-9.69.62-13.8.93s-7.69.63-10.64.89-5.27.53-6.85.68l-2.42.28,2.42.28c1.58.15,3.9.43,6.85.68s6.53.6,10.64.89,8.75.63,13.8.93c10.12.6,21.92,1.13,34.56,1.48,3.16.09,6.37.16,9.63.24s6.55.13,9.87.17l3.36,0c-1.64,0-3.28.07-4.89.12-2.35.07-4.67.13-7,.24-9.13.35-17.65.88-25,1.48-3.65.3-7,.62-10,.93s-5.55.64-7.68.9-3.8.53-4.95.68l-1.75.28,1.75.28c1.14.15,2.82.43,4.95.68s4.72.6,7.68.9,6.32.62,10,.93c7.3.6,15.83,1.13,25,1.48,2.28.1,4.6.17,7,.24s4.73.14,7.12.17c4.79.11,9.66.12,14.53.15s9.74,0,14.53-.14q3.6,0,7.12-.17c2.35-.07,4.67-.13,7-.23,9.13-.35,17.65-.88,25-1.48,3.65-.31,7-.62,10-.93s5.55-.64,7.68-.9,3.8-.53,4.95-.68l1.75-.28-1.75-.28c-1.14-.15-2.82-.44-4.95-.68s-4.72-.6-7.68-.9-6.32-.63-10-.93c-7.3-.6-15.83-1.13-25-1.48-2.28-.11-4.6-.16-7-.23-1.47,0-3-.07-4.46-.11l2.93,0q5,0,9.87-.17c3.25-.07,6.47-.14,9.63-.23,12.64-.35,24.45-.88,34.56-1.48,5.06-.3,9.69-.63,13.8-.94s7.69-.64,10.64-.9,5.27-.53,6.85-.68l2.42-.28-2.42-.28c-1.58-.15-3.9-.44-6.85-.68s-6.53-.6-10.64-.9-8.75-.64-13.8-.94c-10.12-.6-21.92-1.13-34.56-1.48-3.16-.1-6.37-.16-9.63-.23-2.07,0-4.17-.09-6.27-.12l2,0q6.36,0,12.61-.17l12.3-.23c16.16-.35,31.24-.88,44.17-1.48,6.46-.3,12.39-.63,17.64-.94s9.83-.63,13.6-.89,6.73-.53,8.75-.68l3.1-.28-3.1-.28c-2-.15-5-.44-8.75-.68s-8.35-.6-13.6-.89-11.18-.65-17.64-.94c-12.93-.6-28-1.13-44.17-1.48l-12.3-.23c-2.78-.05-5.6-.09-8.42-.12H284q7.75,0,15.35-.17l15-.23c19.67-.35,38-.88,53.77-1.48,7.87-.29,15.08-.64,21.48-1s12-.62,16.56-.89,8.2-.53,10.66-.68l3.77-.28Z"/></svg>